<?xml version="1.0" standalone="no"?>
<!DOCTYPE svg PUBLIC "-//W3C//DTD SVG 20010904//EN"
 "http://www.w3.org/TR/2001/REC-SVG-20010904/DTD/svg10.dtd">
<svg version="1.0" xmlns="http://www.w3.org/2000/svg"
 width="100.000000pt" height="100.000000pt" viewBox="0 0 100.000000 100.000000"
 preserveAspectRatio="xMidYMid meet">
<metadata>
Created by potrace 1.14, written by Peter Selinger 2001-2017
</metadata>
<g transform="translate(0.000000,100.000000) scale(0.100000,-0.100000)"
fill="#000000" stroke="none">
<path d="M270 804 c-124 -96 -232 -181 -240 -189 -21 -22 0 -41 29 -26 l21 12
2 -268 3 -268 148 -3 147 -3 0 181 0 180 120 0 120 0 0 -180 0 -181 148 3 147
3 3 268 2 268 21 -12 c14 -7 24 -8 31 -1 14 14 5 26 -55 71 -29 22 -133 103
-232 180 -98 78 -182 141 -185 141 -3 0 -106 -79 -230 -176z"/>
<path d="M700 888 c0 -7 21 -29 47 -48 75 -58 73 -58 73 5 l0 55 -60 0 c-41 0
-60 -4 -60 -12z"/>
</g>
</svg>
